<?xml version="1.0" encoding="UTF-8"?>
<!DOCTYPE svg PUBLIC "-//W3C//DTD SVG 1.1//EN" "http://www.w3.org/Graphics/SVG/1.1/DTD/svg11.dtd">
<!-- Creator: CorelDRAW -->
<svg xmlns="http://www.w3.org/2000/svg" xml:space="preserve" width="43.7044mm" height="16.048mm" version="1.1" style="shape-rendering:geometricPrecision; text-rendering:geometricPrecision; image-rendering:optimizeQuality; fill-rule:evenodd; clip-rule:evenodd"
viewBox="0 0 4370.44 1604.8"
 xmlns:xlink="http://www.w3.org/1999/xlink"
 xmlns:xodm="http://www.corel.com/coreldraw/odm/2003">
 <defs>
  <style type="text/css">
   <![CDATA[
    .fil2 {fill:#5B5B5B}
    .fil3 {fill:#DE3B21}
    .fil1 {fill:#5B5B5B;fill-rule:nonzero}
    .fil4 {fill:#FEFEFE;fill-rule:nonzero}
    .fil0 {fill:#DE3B21;fill-rule:nonzero}
   ]]>
  </style>
 </defs>
 <g id="Слой_x0020_1">
  <metadata id="CorelCorpID_0Corel-Layer"/>
  <path class="fil0" d="M233.73 123.56l-214 -123.56c-5.39,5.4 -12.15,9.45 -19.73,11.55l0 247.47c7.58,2.11 14.34,6.13 19.73,11.54l214 -123.54c-1.01,-3.73 -1.56,-7.68 -1.56,-11.74 0,-4.05 0.54,-7.98 1.56,-11.72z"/>
  <path class="fil0" d="M265.44 425.4l0.01 -247.09c-7.38,-1.97 -14.26,-5.81 -19.86,-11.32l-214.32 123.73c1.97,7.61 1.85,15.49 -0.14,22.87l214 123.55c2.73,-2.75 5.86,-5.19 9.38,-7.21 3.52,-2.04 7.18,-3.53 10.93,-4.53z"/>
  <path class="fil0" d="M233.73 457.14l-214 -123.57c-5.39,5.41 -12.15,9.46 -19.73,11.56l0 247.47c7.58,2.1 14.34,6.13 19.73,11.55l214 -123.56c-1.01,-3.73 -1.56,-7.67 -1.56,-11.73 0,-4.06 0.54,-7.98 1.56,-11.72z"/>
  <path class="fil0" d="M233.73 790.71l-214 -123.57c-5.39,5.42 -12.15,9.47 -19.73,11.56l0 247.48c7.58,2.1 14.34,6.12 19.73,11.55l214 -123.57c-1.01,-3.72 -1.56,-7.66 -1.56,-11.72 0,-4.06 0.54,-7.98 1.56,-11.73z"/>
  <path class="fil0" d="M233.73 1124.28l-214 -123.56c-5.39,5.41 -12.15,9.47 -19.73,11.55l0 247.49c7.58,2.09 14.34,6.12 19.73,11.54l214 -123.56c-1.01,-3.73 -1.56,-7.66 -1.56,-11.72 0,-4.07 0.54,-8 1.56,-11.74z"/>
  <path class="fil0" d="M265.44 759.22l0.01 -247.11c-7.38,-1.96 -14.26,-5.8 -19.86,-11.31l-214.32 123.73c1.97,7.62 1.85,15.49 -0.14,22.87l214 123.54c2.73,-2.74 5.86,-5.18 9.38,-7.21 3.52,-2.02 7.18,-3.52 10.93,-4.51z"/>
  <path class="fil0" d="M265.44 1093.03l0.01 -247.11c-7.38,-1.97 -14.26,-5.79 -19.86,-11.3l-214.32 123.73c1.97,7.62 1.85,15.48 -0.14,22.86l214 123.55c2.73,-2.74 5.86,-5.17 9.38,-7.22 3.52,-2.01 7.18,-3.52 10.93,-4.51z"/>
  <path class="fil0" d="M265.44 1426.83l0.01 -247.09c-7.38,-1.97 -14.26,-5.79 -19.86,-11.31l-214.32 123.74c1.97,7.61 1.85,15.47 -0.14,22.85l214 123.55c2.73,-2.74 5.86,-5.17 9.38,-7.2 3.52,-2.03 7.18,-3.54 10.93,-4.54z"/>
  <path class="fil0" d="M522.52 1291.04l-213.99 -123.57c-5.4,5.41 -12.16,9.46 -19.73,11.55l0 247.49c7.57,2.08 14.33,6.12 19.73,11.55l213.99 -123.57c-1.01,-3.73 -1.55,-7.66 -1.55,-11.72 0,-4.07 0.53,-7.99 1.55,-11.73z"/>
  <path class="fil0" d="M554.12 1593.05l0.01 -247.1c-7.38,-1.97 -14.27,-5.8 -19.87,-11.32l-214.32 123.75c1.97,7.6 1.86,15.47 -0.14,22.84l214 123.56c2.74,-2.75 5.86,-5.19 9.39,-7.2 3.51,-2.05 7.18,-3.54 10.93,-4.53z"/>
  <path class="fil0" d="M522.53 623.88l-213.99 -123.56c-5.39,5.4 -12.15,9.46 -19.73,11.55l0 247.47c7.58,2.11 14.33,6.13 19.73,11.55l213.99 -123.55c-1.01,-3.73 -1.55,-7.68 -1.55,-11.74 0,-4.06 0.54,-7.98 1.55,-11.72z"/>
  <path class="fil0" d="M554.38 591.97l0.01 -247.1c-7.38,-1.96 -14.26,-5.79 -19.87,-11.32l-214.32 123.76c1.97,7.6 1.86,15.46 -0.14,22.85l214 123.54c2.74,-2.74 5.87,-5.18 9.39,-7.2 3.51,-2.04 7.18,-3.54 10.93,-4.53z"/>
  <path class="fil1" d="M811.31 1457.79l-213.99 -123.55c-5.39,5.39 -12.16,9.44 -19.73,11.54l0 247.48c7.57,2.09 14.33,6.12 19.73,11.54l213.99 -123.55c-1.01,-3.74 -1.56,-7.68 -1.56,-11.73 0,-4.07 0.54,-7.99 1.56,-11.73z"/>
  <path class="fil1" d="M842.94 1426.3l0 -247.11c-7.37,-1.96 -14.26,-5.78 -19.86,-11.3l-214.32 123.72c1.97,7.62 1.86,15.48 -0.13,22.87l213.99 123.54c2.73,-2.73 5.87,-5.17 9.38,-7.21 3.52,-2.02 7.19,-3.53 10.94,-4.51z"/>
  <path class="fil1" d="M1131.76 1259.55l0.01 -247.11c-7.38,-1.96 -14.26,-5.79 -19.87,-11.3l-214.32 123.73c1.98,7.62 1.86,15.48 -0.13,22.86l214 123.54c2.72,-2.73 5.86,-5.16 9.37,-7.21 3.52,-2.01 7.19,-3.52 10.94,-4.51z"/>
  <path class="fil1" d="M1100.16 1290.96l-213.99 -123.56c-5.39,5.42 -12.15,9.45 -19.72,11.56l0 247.46c7.57,2.1 14.33,6.14 19.72,11.55l213.99 -123.55c-1,-3.74 -1.55,-7.67 -1.55,-11.72 0,-4.07 0.54,-8 1.55,-11.74z"/>
  <path class="fil1" d="M1100.17 957.39l-214 -123.56c-5.38,5.41 -12.14,9.44 -19.72,11.54l0 247.48c7.58,2.09 14.33,6.14 19.72,11.55l214 -123.56c-1.01,-3.74 -1.56,-7.66 -1.56,-11.72 0,-4.06 0.55,-7.99 1.56,-11.73z"/>
  <path class="fil1" d="M1100.17 623.82l-213.99 -123.57c-5.39,5.4 -12.15,9.46 -19.72,11.56l0 247.48c7.57,2.09 14.33,6.12 19.72,11.54l213.99 -123.56c-1,-3.73 -1.55,-7.67 -1.55,-11.73 0,-4.06 0.54,-7.99 1.55,-11.72z"/>
  <path class="fil1" d="M1131.75 925.98l0.01 -247.1c-7.38,-1.97 -14.26,-5.8 -19.87,-11.31l-214.32 123.73c1.97,7.61 1.86,15.47 -0.14,22.86l214 123.54c2.73,-2.73 5.87,-5.17 9.38,-7.2 3.52,-2.03 7.19,-3.54 10.94,-4.52z"/>
  <path class="fil1" d="M811.49 457.14l-213.99 -123.57c-5.38,5.41 -12.15,9.46 -19.72,11.56l0 247.47c7.57,2.1 14.33,6.13 19.72,11.55l213.99 -123.56c-1,-3.73 -1.55,-7.67 -1.55,-11.73 0,-4.06 0.54,-7.98 1.55,-11.72z"/>
  <path class="fil1" d="M842.94 759.13l0 -247.09c-7.37,-1.99 -14.26,-5.8 -19.86,-11.32l-214.32 123.74c1.97,7.6 1.86,15.46 -0.13,22.85l213.99 123.56c2.73,-2.75 5.87,-5.18 9.38,-7.21 3.52,-2.04 7.19,-3.54 10.94,-4.53z"/>
  <path class="fil2" d="M2055.47 699.01l143.56 0c-0.62,-1.78 -0.93,-3.7 -0.93,-5.79 0,-2.07 0,-3.39 0,-3.98 0,-4.75 0,-8.3 0,-10.67 0,-28.45 -3.7,-53.62 -11.11,-75.54 -11.27,-32.58 -29.02,-48.86 -53.26,-48.86 -29.79,0 -51.25,18.05 -64.22,54.2 -9.42,25.47 -14.04,55.67 -14.04,90.64zm266.74 42.65l-266.74 0 3.71 50.64c0,13.05 4.62,28.58 13.88,46.66 9.26,18.06 19.61,31.83 31.03,41.31 11.43,9.49 23.77,16.3 37.05,20.44 13.28,4.16 28.24,6.23 44.91,6.23 19.15,0 37.99,-3.56 56.51,-10.68 18.53,-7.1 35.82,-16.87 51.87,-29.32l11.11 8.01 -20.38 49.76c-39.51,26.65 -83.66,39.98 -132.45,39.98 -39.51,0 -73.17,-4.74 -100.94,-14.22 -27.79,-9.48 -53.73,-27.25 -77.81,-53.3 -19.75,-20.74 -33.65,-45.19 -41.67,-73.32 -8.04,-28.14 -12.05,-59.09 -12.05,-92.86 0,-63.38 18.99,-115.07 56.97,-155.05 37.97,-39.99 89.68,-59.99 155.14,-59.99 67.91,0 117.62,21.63 149.11,64.87 27.17,37.31 40.75,90.92 40.75,160.84zm1647.73 -109.29l-6.48 0 -12.05 -53.33c21.61,-18.95 47.71,-33.61 78.27,-43.99 30.56,-10.37 61.59,-15.54 93.07,-15.54 45.55,0 83.36,8.59 113.46,25.77 37.37,21.31 56.04,52.42 56.04,93.3l0 59.54 -2.78 129.74 2.78 50.63c0,6.53 2.16,13.78 6.34,21.78 4.16,7.99 9.09,13.18 15.12,15.55 2.32,0.59 5.4,1.19 8.95,1.77 3.56,0.61 6.8,0.89 9.88,0.89 2.93,0 6.18,0 9.72,0 1.24,0.6 1.85,4.89 1.85,12.89l0 9.33c-6.17,3.7 -13.88,7.25 -23.15,10.66 -9.26,3.27 -16.36,5.93 -21.31,7.85 -6.16,1.19 -12.8,2.38 -19.9,3.71 -7.1,1.18 -13.43,1.77 -18.99,1.77 -21.61,0 -40.44,-5.76 -56.49,-17.32 -16.06,-11.55 -27.79,-27.41 -35.2,-47.54 -11.74,19.85 -28.25,35.54 -49.55,47.23 -21.31,11.7 -44.31,17.63 -69.01,17.63 -39.51,0 -71.46,-10.06 -95.85,-30.21 -24.39,-20.28 -36.58,-49.02 -36.58,-86.49 0,-20.13 4.78,-38.95 14.5,-56.57 9.57,-17.49 23.15,-31.1 40.6,-40.87 17.29,-9.79 36.27,-17.78 56.8,-23.7 2.48,-0.59 22.08,-5.34 58.82,-14.23 14.35,-3.55 25.78,-6.51 34.58,-8.89 13.57,-4.13 24.85,-8.88 33.49,-14.2 5.1,-4.15 8.33,-8.73 9.89,-13.93 1.54,-5.03 2.31,-11.7 2.31,-20 0,-20.12 -8.8,-37.47 -26.4,-52.12 -17.59,-14.51 -37.51,-21.77 -59.74,-21.77 -18.52,0 -36.43,3.41 -53.72,10.22 -17.29,6.81 -33.65,16.73 -49.08,29.77l-10.19 10.67zm107.43 130.76c-11.11,9.05 -18.83,19.25 -23.15,30.8 -4.33,11.71 -6.49,25.78 -6.49,42.5 0,19.56 3.87,35.86 11.74,48.59 7.87,12.87 21.15,19.26 39.98,19.26 26.39,0 45.23,-9.79 56.5,-29.48 8.79,-15.55 13.12,-36.88 13.12,-64.28 0,-9.48 0,-23.85 0,-42.94 0,-18.97 0,-33.34 0,-42.81l-37.06 15.11c-12.34,4.88 -21.61,8.14 -27.77,9.92 -11.75,4.15 -20.69,8.6 -26.87,13.33zm-441.78 -187.64c-34.58,0 -59.28,21.02 -74.09,63.09 -9.88,28.44 -14.82,63.68 -14.82,105.75 0,42.05 4.01,75.51 12.04,100.39 13.58,42.06 36.73,63.11 69.47,63.11 35.19,0 60.2,-21.93 75.01,-65.77 9.89,-28.42 14.83,-64.27 14.83,-107.5 0,-40.3 -4.32,-73.17 -12.97,-98.64 -13.58,-40.28 -36.73,-60.43 -69.47,-60.43zm72.25 -292.35l12.97 1.03 56.49 3.42c7.41,0 18.83,-0.6 34.27,-1.8 15.43,-1.17 27.17,-1.77 35.2,-1.77l-5.57 86.21c0,18.95 -0.61,49.9 -1.85,92.84 -1.23,42.96 -1.85,65.91 -1.85,68.87l0 262.14c0,17.18 0.62,43.54 1.85,79.09 1.24,35.54 1.85,62.2 1.85,79.97l-12.96 -0.88c-8.03,-1.2 -15.75,-2.07 -23.15,-2.67 -7.41,-0.59 -16.37,-0.9 -26.87,-0.9 -9.25,0 -21.6,0.75 -37.04,2.21 -15.44,1.49 -24.39,2.24 -26.86,2.24 0,-10.06 1.39,-23.85 4.17,-41.32 2.77,-17.47 4.16,-28.58 4.16,-33.33 -11.73,27.27 -28.72,48.44 -50.94,63.54 -22.22,15.11 -48.78,22.66 -79.64,22.66 -63.61,0 -111.16,-22.79 -142.64,-68.43 -26.55,-38.49 -39.82,-90.03 -39.82,-154.6 0,-31.99 2.92,-59.55 8.79,-82.65 5.87,-23.09 17.45,-46.78 34.74,-71.08 14.81,-20.74 34.73,-37.77 59.73,-51.1 25.01,-13.33 50.16,-19.99 75.49,-19.99 27.78,0 52.48,5.18 74.1,15.55 21.61,10.36 38.9,26.81 51.86,49.32l0 -70.36 0 -102.46c0,-19.12 -0.47,-34.52 -1.23,-46.38 -3.55,-48.13 -5.25,-74.64 -5.25,-79.37zm-792.82 262.14l0 -17.78c7.4,0 20.07,0.6 38.12,1.79 18.06,1.17 28.1,1.77 29.94,1.77 16.52,0 28.72,-0.3 36.75,-0.89 10.49,-1.79 18.06,-2.67 23,-2.67l-2.78 65.75c19.14,-23.38 39.67,-41.3 61.91,-53.89 24.54,-14.37 50.78,-21.62 78.41,-21.62 44.92,0 83.36,16.58 115.46,49.76 14.06,15.4 23.31,35.83 27.63,61.31 1.86,11.84 2.78,34.64 2.78,68.42l0 108.41 0 147.5c-10.5,0 -24.39,-0.75 -41.83,-2.24 -17.45,-1.46 -28.1,-2.21 -31.8,-2.21 -9.11,0 -21.15,0.75 -35.82,2.21 -14.8,1.49 -23.62,2.24 -26.7,2.24l3.7 -46.2c0,-14.81 0.78,-34.52 2.32,-59.1 1.55,-24.59 2.32,-39.24 2.32,-43.99l0 -66.63c0,-45.03 -2.48,-75.54 -7.42,-91.53 -10.33,-34.95 -33.03,-52.44 -68.06,-52.44 -36.9,0 -60.83,19.57 -71.79,58.66 -5.56,18.95 -8.33,52.73 -8.33,101.3 0,30.8 0.77,70.04 2.32,117.74 1.54,47.69 2.31,75.08 2.31,82.19 -9.26,0 -21.92,-0.75 -37.98,-2.24 -16.05,-1.46 -25.62,-2.21 -28.7,-2.21 -9.27,0 -21.92,0.75 -37.98,2.21 -16.06,1.49 -25.62,2.24 -28.71,2.24l0.93 -46.2 4.62 -111.07 0 -101.31 0 -35.55c0,-15.99 -0.76,-37.61 -2.31,-64.85 -1.54,-27.25 -2.31,-43.56 -2.31,-48.88zm-248.22 407.86l2.77 -62.91 3.71 -91.53 2.79 -144.9c0,-17.15 -1.09,-43.21 -3.26,-78.16 -2.16,-34.97 -3.24,-61.35 -3.24,-79.14l8.34 0.96 67.16 2.86c6.93,0 17.74,-0.47 32.71,-1.44 14.83,-0.94 26.08,-1.42 33.51,-1.42l-6.49 122.66c0,20.98 -0.62,56.08 -1.86,105.18 -1.24,49.1 -1.85,75.63 -1.85,79.45 0,33.04 0.31,59.26 0.93,78.95 0.61,19.71 2.78,42.74 6.49,69.44 -10.51,0 -24.86,-0.79 -43.08,-2.4 -18.21,-1.58 -29.18,-2.37 -32.87,-2.37 -9.27,0 -21.77,0.79 -37.52,2.37 -15.75,1.61 -25.16,2.4 -28.24,2.4zm-125.04 -391.72c0,53.91 0,102.78 0,146.62 4.32,152.24 6.48,233.99 6.48,245.4 -9.57,-0.15 -22.69,-0.9 -39.21,-2.38 -16.5,-1.62 -26.24,-2.37 -29.32,-2.37 -9.57,0 -22.7,0.75 -39.22,2.37 -16.52,1.48 -26.24,2.23 -29.33,2.38 0,-24.29 0.47,-60.43 1.4,-108.41 0.92,-47.98 1.38,-80.86 1.38,-98.64l0 -61.16 0 -108.41 0 -145.58 -2.78 -103.07c0,-4.76 -0.93,-12.14 -2.77,-22.22 -1.86,-10.07 -2.79,-17.77 -2.79,-23.11 11.11,1.64 24.86,2.52 41.22,3.11 16.37,0.44 25.78,0.75 28.25,0.75 11.73,0 23.62,-0.31 35.66,-0.91 12.04,-0.59 23.93,-1.77 35.66,-3.54l-4.63 37.33 0 96.85 0 144.99zm-1008.63 341.08l46 0c17.45,0 33.35,-3.13 47.7,-9.34 14.36,-6.22 26.25,-16.14 35.66,-29.77 16.83,-24.29 25.31,-50.34 25.31,-78.19 0,-43.25 -10.33,-75.09 -31.03,-95.53 -20.68,-20.44 -51.39,-30.66 -92.15,-30.66 -4.94,0 -9.57,0 -13.89,0 -7.41,0 -12.96,0 -16.67,0l-0.93 129.88 0 113.61zm0 -293.25l14.98 0c21.3,0 38.59,-1.18 52.02,-3.54 13.58,-2.38 27.01,-8.89 40.44,-19.56 13.42,-10.66 23.46,-23.99 29.95,-39.99 6.64,-15.99 9.88,-33.17 9.88,-51.53 0,-12.45 -2.63,-26.81 -7.88,-43.11 -5.39,-16.28 -12.35,-27.68 -20.99,-34.21 -20.53,-15.99 -44.15,-23.98 -70.86,-23.98 -7.4,0 -13.57,0 -18.21,0 -4.63,0 -13.12,1.19 -25.62,3.55 0,13.63 -0.61,36.43 -1.85,68.43 -1.24,31.99 -1.86,49.17 -1.86,51.53l0 92.41zm133.38 15.11l0 8.01c19.74,0 39.97,3.55 60.66,10.65 20.69,7.1 39.05,16.89 55.11,29.32 33.96,28.44 50.94,63.98 50.94,106.63 0,45.03 -16.36,84.72 -49.1,119.09 -14.19,14.2 -31.48,25.46 -51.86,33.76 -15.42,6.51 -35.81,12.15 -61.13,16.87 -6.78,1.19 -15.9,2.21 -27.32,3.12 -11.42,0.89 -23,1.33 -34.73,1.33l-136.15 -2.67 -80.57 2.67c2.46,-16.59 4.32,-36.13 5.55,-58.65 1.23,-22.51 1.86,-43.83 1.86,-63.98 0,-28.42 0.61,-75.24 1.85,-140.39 1.23,-65.17 1.85,-99.82 1.85,-103.97 0,-26.06 -1.24,-66.06 -3.7,-119.96 -2.47,-53.92 -3.71,-94.48 -3.71,-121.74l104.65 2.67 133.38 0c53.1,0 95.39,9.78 126.89,29.18 38.27,23.54 57.42,59.09 57.42,106.77 0,39.55 -15.44,72.13 -46.31,98.04 -27.16,22.97 -62.36,37.47 -105.58,43.25z"/>
  <path class="fil0" d="M2811.22 454.03l0.01 -162.55c-4.86,-1.29 -9.38,-3.83 -13.07,-7.44l-140.99 81.38c1.3,5.02 1.23,10.19 -0.09,15.05l140.78 81.28c1.79,-1.81 3.86,-3.41 6.17,-4.74 2.32,-1.34 4.73,-2.32 7.19,-2.98z"/>
  <polygon class="fil3" points="1366.03,1030.81 4370.44,1030.81 4370.44,1422.88 1366.03,1422.88 "/>
  <path class="fil4" d="M1667.59 1250.96c0,-14.6 -1.27,-27.61 -4.13,-38.4 -2.85,-11.11 -8.25,-21.58 -15.87,-31.42 -7.93,-9.84 -17.45,-17.45 -29.19,-22.84 -11.74,-5.4 -23.81,-7.94 -36.81,-7.94 -18.41,0 -34.28,4.44 -47.6,13.01 -13.65,8.89 -24.12,21.26 -31.11,37.45 -7.29,16.18 -10.78,34.91 -10.78,56.17 0,20.62 3.81,38.4 11.42,53.31 7.93,14.92 18.41,26.02 31.42,33.32 13.32,7.62 27.92,11.43 43.79,11.43 15.24,0 28.57,-3.18 39.98,-9.84 11.11,-6.66 20.63,-15.23 27.61,-25.71 7.31,-10.78 12.7,-21.9 16.19,-33.95 3.49,-12.38 5.08,-23.8 5.08,-34.59zm-89.81 114.56c-17.14,0 -33,-2.54 -47.6,-7.94 -14.28,-5.39 -26.66,-13.01 -37.13,-22.84 -10.16,-9.84 -18.09,-21.9 -23.8,-35.86 -5.39,-13.65 -8.25,-29.2 -8.25,-45.7 0,-17.14 2.86,-32.69 8.88,-46.65 6.03,-13.97 14.29,-26.02 25.07,-35.86 10.79,-10.15 23.17,-17.77 37.45,-22.85 14.28,-5.39 29.51,-7.94 46.02,-7.94 15.55,0 30.46,2.23 44.74,6.35 14.28,4.45 26.97,10.79 38.4,19.68 11.42,8.89 20.62,20.31 27.29,34.27 6.66,13.65 9.84,29.83 9.84,48.24 0,17.45 -2.86,33.32 -8.89,47.92 -5.71,14.28 -14.28,26.66 -25.07,37.12 -10.79,10.48 -23.8,18.41 -38.72,23.81 -14.59,5.39 -30.78,8.25 -48.23,8.25zm187.23 -103.46l0 99.65c-1.91,0 -4.44,-0.32 -7.3,-0.64 -3.17,-0.31 -5.4,-0.31 -6.66,-0.31 -1.59,0 -4.12,0 -7.31,0.31 -3.17,0.32 -5.38,0.64 -6.66,0.64l0 -217.07 56.8 0c20.64,0 37.14,1.59 48.88,5.09 11.74,3.17 20.31,8.57 25.38,16.18 5.09,7.3 7.62,17.77 7.62,30.78 0,9.52 -1.27,17.77 -4.12,24.75 -2.86,7.31 -7.3,13.33 -12.7,18.41 -5.71,5.08 -12.69,9.21 -21.26,13.01 -8.25,3.49 -18.4,6.34 -29.83,8.57 -4.76,0.96 -10.79,1.58 -18.4,1.58 -3.81,0 -8.57,-0.31 -14.28,-0.62 -5.4,-0.33 -8.89,-0.33 -10.16,-0.33zm0 -105.04l0 92.66c6.03,0.33 11.11,0.64 14.6,0.64 3.17,0 8.56,-0.31 16.82,-0.64 15.86,-1.58 27.92,-6.98 36.81,-16.17 8.88,-9.21 13.33,-20.95 13.33,-35.23 0,-7.62 -1.27,-14.28 -3.81,-20 -2.54,-6.02 -6.35,-10.79 -11.74,-14.28 -5.4,-3.8 -12.07,-6.03 -20.31,-6.65 -4.45,-0.33 -12.69,-0.64 -24.44,-0.64 -11.1,0 -18.08,0 -21.26,0.31zm313.53 78.71l0 -91.09c0.96,0 2.22,0 4.13,0.33 1.9,0.31 3.81,0.31 5.4,0.31 1.9,0.32 3.48,0.32 4.43,0.32 0.95,0 2.55,0 4.14,-0.32 1.9,0 3.48,-0.31 5.38,-0.31 1.59,-0.33 3.18,-0.33 4.45,-0.33l0 217.07c-1.9,0 -4.45,-0.32 -7.3,-0.64 -3.17,-0.31 -5.39,-0.31 -6.67,-0.31 -1.58,0 -4.12,0 -7.29,0.31 -3.18,0.32 -5.4,0.64 -6.67,0.64l0 -109.17c-37.44,-0.95 -59.66,-1.58 -66.64,-1.58 -6.66,0 -28.87,0.63 -66.96,1.58l0 109.17c-1.9,0 -4.12,-0.32 -7.29,-0.64 -3.18,-0.31 -5.4,-0.31 -6.67,-0.31 -1.59,0 -4.13,0 -7.3,0.31 -3.17,0.32 -5.39,0.64 -6.67,0.64l0 -217.07c0.96,0 2.23,0 4.13,0.33 1.9,0.31 3.81,0.31 5.4,0.31 1.9,0.32 3.49,0.32 4.44,0.32 0.95,0 2.53,0 4.13,-0.32 1.9,0 3.8,-0.31 5.39,-0.31 1.91,-0.33 3.49,-0.33 4.44,-0.33l0 91.09c7.93,0 18.73,0.31 32.69,0.95 13.64,0.31 25.07,0.64 34.27,0.64 9.2,0 20.63,-0.33 34.6,-0.64 13.64,-0.64 24.43,-0.95 32.04,-0.95zm160.58 -75.85l0 202.46c-1.9,0 -4.13,-0.31 -7.3,-0.63 -2.86,-0.32 -5.07,-0.32 -6.66,-0.32 -1.59,0 -3.81,0 -6.98,0.32 -3.5,0.32 -5.72,0.63 -6.98,0.63l0 -202.46c-21.59,0 -44.75,1.27 -69.51,3.81 0,-1.27 0.33,-2.86 0.64,-4.76 0.31,-2.22 0.31,-3.81 0.31,-4.77 0,-0.95 0,-2.53 -0.31,-4.43 -0.31,-2.23 -0.64,-3.81 -0.64,-5.09l163.75 0c0,0.64 0,1.91 -0.31,2.86 0,1.28 -0.32,2.54 -0.32,3.81 -0.32,1.27 -0.32,2.23 -0.32,2.85 0,0.64 0,1.6 0.32,2.86 0,1.28 0,2.54 0.32,3.81 0.31,1.27 0.31,2.22 0.31,2.86 -21.58,-2.54 -43.47,-3.81 -66.32,-3.81zm262.75 75.85l0 -91.09c0.96,0 2.23,0 4.14,0.33 1.9,0.31 3.81,0.31 5.39,0.31 1.9,0.32 3.49,0.32 4.44,0.32 0.95,0 2.54,0 4.13,-0.32 1.9,0 3.49,-0.31 5.39,-0.31 1.58,-0.33 3.17,-0.33 4.44,-0.33l0 217.07c-1.9,0 -4.44,-0.32 -7.29,-0.64 -3.18,-0.31 -5.4,-0.31 -6.67,-0.31 -1.59,0 -4.12,0 -7.3,0.31 -3.17,0.32 -5.39,0.64 -6.67,0.64l0 -109.17c-37.44,-0.95 -59.66,-1.58 -66.64,-1.58 -6.66,0 -28.87,0.63 -66.95,1.58l0 109.17c-1.9,0 -4.13,-0.32 -7.3,-0.64 -3.17,-0.31 -5.4,-0.31 -6.67,-0.31 -1.58,0 -4.12,0 -7.29,0.31 -3.18,0.32 -5.4,0.64 -6.67,0.64l0 -217.07c0.96,0 2.22,0 4.13,0.33 1.9,0.31 3.81,0.31 5.4,0.31 1.9,0.32 3.48,0.32 4.43,0.32 0.95,0 2.54,0 4.13,-0.32 1.9,0 3.8,-0.31 5.39,-0.31 1.91,-0.33 3.5,-0.33 4.45,-0.33l0 91.09c7.93,0 18.72,0.31 32.69,0.95 13.64,0.31 25.07,0.64 34.26,0.64 9.21,0 20.64,-0.33 34.6,-0.64 13.64,-0.64 24.43,-0.95 32.04,-0.95zm168.2 -95.85l95.21 221.83c-2.23,0 -5.08,-0.32 -8.57,-0.64 -3.5,-0.31 -6.03,-0.31 -7.94,-0.31 -1.9,0 -4.76,0 -8.56,0.31 -3.81,0.32 -6.67,0.64 -8.26,0.64 -2.53,-7.93 -6.03,-16.82 -9.84,-27.3 -3.8,-10.46 -7.61,-20.31 -11.42,-29.83 -4.12,-9.83 -7.93,-19.03 -12.05,-28.55l-80.61 0c-15.87,39.98 -26.34,68.54 -31.42,85.68 -1.58,0 -3.81,-0.32 -6.34,-0.64 -2.55,-0.31 -4.14,-0.31 -5.4,-0.31 -1.59,0 -3.49,0.31 -6.03,0.31 -2.54,0.32 -4.12,0.64 -5.08,0.64l99.01 -221.83 7.3 0zm23.8 122.82l-35.22 -81.24 -34.6 81.24 69.82 0zm132.65 -118.06l0 201.2c13.01,0 32.06,-0.31 57.44,-1.27 6.98,-0.31 17.14,-1.26 30.14,-2.85 0,0.64 -0.31,1.9 -0.31,2.85 -0.31,1.27 -0.31,2.55 -0.31,3.81 -0.33,1.27 -0.33,2.22 -0.33,2.86 0,1.26 0,2.85 0.33,4.76 0.31,1.58 0.31,3.17 0.62,4.76l-115.51 0 0 -216.12c0.95,0 2.23,0 4.13,0.33 1.91,0.31 3.81,0.31 5.39,0.31 1.91,0.32 3.5,0.32 4.45,0.32 0.95,0 2.54,0 4.12,-0.32 1.91,0 3.5,-0.31 5.4,-0.31 1.58,-0.33 3.17,-0.33 4.44,-0.33zm336.38 0l6.67 0c3.17,30.47 5.71,52.05 6.98,65.06 1.58,13.01 3.48,29.52 5.71,49.5 2.22,20.31 4.44,38.72 6.67,55.23 2.21,16.81 4.43,32.69 6.34,47.28 -2.22,0 -4.76,-0.32 -7.94,-0.64 -3.17,-0.31 -5.39,-0.31 -6.97,-0.31 -1.91,0 -4.45,0 -7.62,0.31 -3.5,0.32 -5.71,0.64 -7.3,0.64 -1.27,-15.55 -3.17,-35.86 -5.39,-60.93 -2.23,-25.07 -4.14,-46.01 -6.04,-62.51 -1.58,-16.83 -3.17,-30.16 -4.76,-40.31 -39.98,71.09 -67.59,124.71 -83.14,160.26l-3.49 0 -17.46 -35.86c-5.07,-10.79 -10.46,-21.58 -15.86,-32.05 -5.4,-10.8 -10.47,-20.63 -15.55,-30.15 -4.76,-9.52 -10.16,-19.67 -15.87,-30.46 -5.71,-10.8 -11.43,-21.59 -16.82,-31.74 -0.63,6.98 -2.21,20.63 -4.76,40.94 -2.22,19.99 -4.12,37.44 -5.71,52.04 -1.59,14.6 -2.86,27.61 -3.81,39.35 -0.95,11.74 -1.26,22.21 -1.26,31.42 -1.59,0 -3.5,-0.32 -6.04,-0.64 -2.22,-0.31 -3.8,-0.31 -5.08,-0.31 -1.26,0 -3.48,0 -6.02,0.31 -2.55,0.32 -4.13,0.64 -5.4,0.64 2.23,-12.69 5.71,-36.18 10.79,-70.13 4.76,-34.28 9.2,-64.42 12.7,-91.08 3.48,-26.34 6.02,-45.06 6.98,-55.86l8.25 0c10.47,20.64 20.31,39.99 29.51,58.08 9.52,17.77 19.04,35.86 28.88,53.63 9.83,17.77 20.31,35.87 31.42,54.58 1.9,-3.17 7.61,-13.96 17.76,-32.37 9.84,-18.08 19.05,-34.58 26.66,-48.86 7.94,-14.28 15.24,-27.61 21.9,-40.31 6.98,-12.37 15.23,-27.29 25.07,-44.75zm268.16 106.32c0,-14.6 -1.27,-27.61 -4.13,-38.4 -2.85,-11.11 -8.25,-21.58 -15.87,-31.42 -7.93,-9.84 -17.45,-17.45 -29.19,-22.84 -11.74,-5.4 -23.81,-7.94 -36.81,-7.94 -18.41,0 -34.28,4.44 -47.61,13.01 -13.64,8.89 -24.12,21.26 -31.1,37.45 -7.3,16.18 -10.78,34.91 -10.78,56.17 0,20.62 3.81,38.4 11.42,53.31 7.93,14.92 18.41,26.02 31.41,33.32 13.33,7.62 27.93,11.43 43.8,11.43 15.24,0 28.56,-3.18 39.98,-9.84 11.11,-6.66 20.63,-15.23 27.61,-25.71 7.3,-10.78 12.7,-21.9 16.19,-33.95 3.48,-12.38 5.08,-23.8 5.08,-34.59zm-89.81 114.56c-17.14,0 -33,-2.54 -47.61,-7.94 -14.27,-5.39 -26.65,-13.01 -37.12,-22.84 -10.16,-9.84 -18.09,-21.9 -23.8,-35.86 -5.4,-13.65 -8.25,-29.2 -8.25,-45.7 0,-17.14 2.85,-32.69 8.88,-46.65 6.03,-13.97 14.29,-26.02 25.07,-35.86 10.79,-10.15 23.17,-17.77 37.45,-22.85 14.28,-5.39 29.51,-7.94 46.01,-7.94 15.56,0 30.47,2.23 44.75,6.35 14.28,4.45 26.97,10.79 38.4,19.68 11.42,8.89 20.62,20.31 27.29,34.27 6.66,13.65 9.83,29.83 9.83,48.24 0,17.45 -2.85,33.32 -8.88,47.92 -5.71,14.28 -14.28,26.66 -25.07,37.12 -10.79,10.48 -23.8,18.41 -38.72,23.81 -14.59,5.39 -30.78,8.25 -48.23,8.25zm190.4 -220.88l0 201.2c13.01,0 32.06,-0.31 57.44,-1.27 6.98,-0.31 17.14,-1.26 30.14,-2.85 0,0.64 -0.31,1.9 -0.31,2.85 -0.31,1.27 -0.31,2.55 -0.31,3.81 -0.33,1.27 -0.33,2.22 -0.33,2.86 0,1.26 0,2.85 0.33,4.76 0.31,1.58 0.31,3.17 0.62,4.76l-115.51 0 0 -216.12c0.95,0 2.23,0 4.13,0.33 1.91,0.31 3.81,0.31 5.39,0.31 1.91,0.32 3.5,0.32 4.45,0.32 0.95,0 2.54,0 4.12,-0.32 1.91,0 3.5,-0.31 5.4,-0.31 1.59,-0.33 3.17,-0.33 4.44,-0.33zm322.42 106.32c0,-14.6 -1.27,-27.61 -4.13,-38.4 -2.85,-11.11 -8.25,-21.58 -15.87,-31.42 -7.93,-9.84 -17.45,-17.45 -29.19,-22.84 -11.74,-5.4 -23.8,-7.94 -36.81,-7.94 -18.41,0 -34.28,4.44 -47.6,13.01 -13.65,8.89 -24.12,21.26 -31.11,37.45 -7.29,16.18 -10.78,34.91 -10.78,56.17 0,20.62 3.81,38.4 11.42,53.31 7.93,14.92 18.41,26.02 31.42,33.32 13.32,7.62 27.93,11.43 43.79,11.43 15.24,0 28.57,-3.18 39.99,-9.84 11.1,-6.66 20.62,-15.23 27.6,-25.71 7.31,-10.78 12.7,-21.9 16.19,-33.95 3.49,-12.38 5.08,-23.8 5.08,-34.59zm-89.81 114.56c-17.14,0 -33,-2.54 -47.6,-7.94 -14.28,-5.39 -26.66,-13.01 -37.13,-22.84 -10.16,-9.84 -18.09,-21.9 -23.8,-35.86 -5.39,-13.65 -8.25,-29.2 -8.25,-45.7 0,-17.14 2.86,-32.69 8.88,-46.65 6.03,-13.97 14.29,-26.02 25.07,-35.86 10.79,-10.15 23.17,-17.77 37.45,-22.85 14.28,-5.39 29.52,-7.94 46.02,-7.94 15.55,0 30.46,2.23 44.74,6.35 14.28,4.45 26.97,10.79 38.4,19.68 11.42,8.89 20.62,20.31 27.29,34.27 6.66,13.65 9.84,29.83 9.84,48.24 0,17.45 -2.85,33.32 -8.89,47.92 -5.71,14.28 -14.28,26.66 -25.07,37.12 -10.79,10.48 -23.79,18.41 -38.72,23.81 -14.59,5.39 -30.78,8.25 -48.23,8.25zm351.93 -182.79l-3.49 0c-8.57,-9.84 -19.35,-17.45 -32.05,-22.85 -12.37,-5.39 -25.7,-7.93 -39.35,-7.93 -13.65,0 -25.71,2.21 -37.13,6.66 -11.1,4.12 -20.95,10.79 -28.88,19.36 -7.93,8.25 -14.28,18.72 -18.72,31.1 -4.45,12.69 -6.66,26.66 -6.66,42.52 0,20.94 3.48,39.04 10.78,54.58 6.98,15.24 17.77,26.98 32.05,34.91 14.28,8.25 31.74,12.38 52.05,12.38 19.35,0 35.86,-3.49 49.51,-10.79l0 -81.56c0.95,0 2.53,0 4.12,0.32 1.9,0 3.81,0.32 5.4,0.32 1.9,0.31 3.48,0.31 4.44,0.31 0.95,0 2.21,0 4.12,-0.31 1.9,0 3.49,-0.32 5.4,-0.32 1.59,-0.32 3.17,-0.32 4.44,-0.32l0 89.81c-28.25,9.84 -56.8,14.6 -86.32,14.6 -26.02,0 -47.59,-4.76 -65.05,-14.28 -17.77,-9.52 -30.78,-22.85 -39.35,-39.67 -8.25,-16.82 -12.7,-36.49 -12.7,-58.39 0,-23.81 5.4,-44.43 15.87,-61.57 10.79,-17.14 25.39,-30.14 44.11,-38.71 18.72,-8.57 39.98,-13.02 63.79,-13.02 14.28,0 26.97,0.95 38.08,3.18 11.42,2.22 20.31,4.76 27.29,7.62 6.67,2.86 11.74,5.39 15.55,7.62 -1.59,4.43 -4.12,12.69 -7.3,24.43zm141.22 81.56l0 97.42c-1.91,0 -4.45,-0.32 -7.3,-0.64 -3.17,-0.31 -5.08,-0.31 -6.67,-0.31 -1.58,0 -3.8,0 -6.98,0.31 -3.17,0.32 -5.39,0.64 -6.98,0.64l0 -91.39 -77.75 -125.68c1.28,0 2.86,0 5.4,0.33 2.22,0.31 4.76,0.31 6.98,0.31 2.22,0.32 4.12,0.32 5.4,0.32 1.26,0 2.85,0 5.07,-0.32 2.54,0 4.76,-0.31 6.67,-0.31 2.22,-0.33 4.12,-0.33 5.71,-0.33 3.81,7.31 9.84,18.73 18.41,34.28 8.88,15.86 17.13,30.47 25.06,44.11 7.94,13.96 13.65,23.17 16.82,27.93 3.18,-3.81 8.57,-12.38 16.51,-25.71 7.61,-13.33 16.81,-30.14 27.29,-49.82 10.79,-19.67 16.5,-30.15 16.81,-30.79 0.95,0 2.23,0 3.81,0.33 1.59,0.31 3.18,0.31 4.76,0.31 1.59,0.32 2.86,0.32 3.81,0.32 0.95,0 1.9,0 3.81,-0.32 1.59,0 3.17,-0.31 4.76,-0.31 1.27,-0.33 2.86,-0.33 3.81,-0.33 -7.62,9.85 -15.24,20.31 -22.53,31.74l-34.91 56.17c-6.98,10.79 -13.01,21.27 -17.77,31.74z"/>
 </g>
</svg>
