<svg width="28" height="28" viewBox="0 0 28 28" fill="none" xmlns="http://www.w3.org/2000/svg">
<path d="M13.9926 27.3365C10.3502 27.3365 9.9208 27.3173 8.49937 27.2552C7.39091 27.2188 6.29679 26.9937 5.26413 26.5897C3.47744 25.8952 2.06464 24.4836 1.37 22.6988C0.98104 21.6636 0.771248 20.5699 0.749604 19.4645C0.666687 18.0477 0.666687 17.5833 0.666687 13.9734C0.666687 10.325 0.685936 9.89906 0.749604 8.48673C0.771721 7.38277 0.981506 6.2906 1.37 5.25685C2.06388 3.46967 3.47898 2.05681 5.26857 1.36444C6.30303 0.974316 7.39679 0.764229 8.50233 0.743312C9.91636 0.663452 10.3813 0.663452 13.9926 0.663452C17.6647 0.663452 18.0866 0.682678 19.4859 0.743312C20.5943 0.76441 21.6909 0.974475 22.7285 1.36444C24.5176 2.0576 25.9324 3.47018 26.6271 5.25685C27.0226 6.30567 27.2335 7.41491 27.2504 8.53553C27.3334 9.9523 27.3334 10.4152 27.3334 14.0237C27.3334 17.6321 27.3126 18.1054 27.2504 19.5059C27.2284 20.6124 27.0181 21.7071 26.6286 22.7431C25.9321 24.5292 24.5172 25.9413 22.7285 26.6355C21.6924 27.0233 20.598 27.2328 19.4918 27.2552C18.0778 27.3365 17.6143 27.3365 13.9926 27.3365ZM13.9423 3.00452C10.3206 3.00452 9.9445 3.02227 8.53047 3.08586C7.68647 3.09702 6.85063 3.25259 6.05925 3.54579C4.89064 3.99242 3.96593 4.91226 3.51399 6.07763C3.21818 6.87667 3.0624 7.72063 3.05351 8.5725C2.97503 10.0055 2.97503 10.3812 2.97503 13.9734C2.97503 17.5227 2.98836 17.953 3.05351 19.3772C3.06676 20.2205 3.22245 21.0554 3.51399 21.8469C3.9666 23.0115 4.89115 23.9307 6.05925 24.3773C6.85009 24.6724 7.68627 24.8281 8.53047 24.8372C9.96375 24.92 10.3413 24.92 13.9423 24.92C17.5743 24.92 17.9504 24.9023 19.3526 24.8372C20.1972 24.827 21.0336 24.6714 21.8253 24.3773C22.9868 23.9268 23.9055 23.0098 24.3572 21.8499C24.6525 21.0502 24.8082 20.2058 24.8177 19.3535H24.834C24.8977 17.9397 24.8977 17.5626 24.8977 13.9497C24.8977 10.3368 24.8814 9.95673 24.8177 8.5444C24.8044 7.70211 24.6488 6.86811 24.3572 6.07763C23.9066 4.91608 22.9877 3.99728 21.8253 3.54579C21.0338 3.25111 20.1972 3.0955 19.3526 3.08586C17.9208 3.00452 17.5462 3.00452 13.9423 3.00452ZM13.9926 20.8043C11.2238 20.8061 8.72653 19.1417 7.66556 16.5872C6.60458 14.0328 7.18885 11.0915 9.14587 9.13516C11.1029 7.17879 14.0472 6.59268 16.6056 7.65017C19.164 8.70766 20.8327 11.2005 20.8333 13.966C20.8292 17.7387 17.7699 20.797 13.9926 20.8043ZM13.9926 9.52638C11.5394 9.52638 9.55064 11.5127 9.55064 13.963C9.55064 16.4133 11.5394 18.3997 13.9926 18.3997C16.4459 18.3997 18.4346 16.4133 18.4346 13.963C18.4289 11.5151 16.4435 9.53207 13.9926 9.52638ZM21.0998 8.47194C20.2194 8.46867 19.5079 7.75407 19.5096 6.87476C19.5112 5.99545 20.2253 5.28348 21.1057 5.28348C21.9861 5.28348 22.7002 5.99543 22.7019 6.87475C22.7022 7.29898 22.5335 7.70591 22.2329 8.00561C21.9323 8.30532 21.5245 8.47312 21.0998 8.47194Z" fill="white"/>
</svg>
